<?xml version="1.0" encoding="utf-8"?>
<!-- Generator: Adobe Illustrator 24.0.1, SVG Export Plug-In . SVG Version: 6.00 Build 0)  -->
<svg version="1.1" id="Layer_1" xmlns="http://www.w3.org/2000/svg" xmlns:xlink="http://www.w3.org/1999/xlink" x="0px" y="0px"
	 viewBox="0 0 800 800" style="enable-background:new 0 0 800 800;" xml:space="preserve">
<style type="text/css">
	.st0{fill:#FFFFFF;}
	.st1{fill:#D4A883;}
	.st2{fill:#56070C;}
	.st3{fill:#CA9465;}
</style>
<rect x="0" width="800" height="800"/>
<g>
	<g>
		<g>
			<path class="st0" d="M316.65,334.04c0-40.22,18.33-74.15,57.73-76.89c24.35-1.64,36.67,10.4,36.67,10.4l2.74,14.78h-1.09
				c-2.19-4.38-5.75-10.67-9.58-13.68c-11.49-9.03-23.26-11.49-34.2-8.48c-41.32,11.49-52.26,73.33-33.93,111.36
				c8.76,18.06,24.08,33.66,43.78,38.58c12.86,3.28,24.63,3.01,39.68-1.37l0.27,0.82c-13.95,4.38-28.46,4.38-41.32,1.64
				C339.91,403.27,316.65,374.26,316.65,334.04z"/>
			<path class="st0" d="M379.65,451.87v-0.55c1.64,0,3.01-1.09,4.1-3.28c1.09-1.92,1.92-4.93,1.92-8.76v-87.01
				c0-4.1-0.82-7.11-2.19-9.3c-1.09-1.64-2.46-2.74-3.83-2.74v-0.55h20.79v0.55c-3.28,0-6.02,5.2-6.02,9.3v100.69l12.86,0.27
				c40.22,0.82,65.67-31.19,65.67-72.24c0-44.05-30.65-71.42-66.76-71.42c-8.76,0-17.24,0.82-23.53,3.01
				c-13.41,4.65-24.35,14.23-30.65,27.36c-6.02,12.59-7.11,27.64-2.74,41.32c4.38,13.95,13.68,25.17,26.27,31.19l-0.27,0.55
				c-12.59-6.02-21.89-17.24-26.54-31.47c-4.65-13.96-3.56-29.28,2.74-41.86c6.57-13.13,17.51-22.98,30.92-27.91
				c6.02-2.19,14.78-3.28,23.81-3.28c45.15,0,77.16,29.83,77.16,73.06c0,26.54-23.26,73.06-76.61,73.06H379.65z"/>
		</g>
		<g>
			<path class="st0" d="M186.43,496.62h0.77c-1.3,4.44-3.61,8.11-6.99,10.89c-3.37,2.78-7.64,4.14-12.85,4.08
				c-3.79,0-7.34-0.95-10.66-2.78c-2.9-1.83-5.15-4.26-6.75-7.4c-1.6-3.14-2.43-6.51-2.43-10.24c0-3.97,0.95-7.58,2.9-10.71
				c1.95-3.14,4.74-5.62,8.35-7.34c3.26-1.54,6.63-2.31,10.24-2.37c3.55,0,6.87,0.95,10,2.84c2.9,1.83,5.09,4.32,6.69,7.4
				c0.41,0.77,0.71,1.48,1.01,2.25l-4.02,2.01c-0.3-1.12-0.71-2.25-1.19-3.26c-1.48-3.08-3.49-5.5-6.1-7.22
				c-1.95-1.24-4.14-2.07-6.57-2.37c-2.49-0.41-4.91-0.24-7.22,0.41c-2.31,0.65-4.32,1.95-6.04,3.85c-2.55,3.02-3.85,7.1-3.85,12.31
				c0,3.49,0.65,6.87,1.95,10.24c1.3,3.37,3.37,6.1,6.28,8.29c3.2,2.19,6.69,3.2,10.42,2.9c3.73-0.3,7.04-1.66,9.89-4.14
				c0.77-0.65,1.42-1.36,2.07-2.13C184.01,502.07,185.37,499.58,186.43,496.62z"/>
			<path class="st0" d="M235.75,480.99c1.54,3.02,2.31,6.28,2.31,9.71c0,3.85-0.95,7.34-2.9,10.54c-1.95,3.2-4.56,5.74-7.81,7.58
				c-3.2,1.78-6.63,2.66-10.3,2.72c-3.73,0.06-7.16-0.83-10.3-2.72c-2.9-1.83-5.21-4.26-6.81-7.4c-1.6-3.14-2.37-6.51-2.37-10.24
				c0-3.97,0.95-7.58,2.9-10.71c1.95-3.14,4.74-5.62,8.35-7.34c3.26-1.54,6.63-2.31,10.24-2.37c3.55,0,6.87,0.95,9.94,2.84
				C231.9,475.43,234.15,477.91,235.75,480.99z M233.68,492.54c0-3.97-0.71-7.46-2.19-10.54c-1.42-3.08-3.43-5.5-6.1-7.22
				c-1.95-1.24-4.08-2.07-6.51-2.37c-2.49-0.41-4.91-0.24-7.22,0.41c-2.31,0.65-4.32,1.95-6.04,3.85c-2.55,3.02-3.85,7.1-3.85,12.31
				c0,3.97,0.71,7.58,2.19,10.83c1.42,3.26,3.43,5.8,6.04,7.7c2.43,1.72,5.15,2.6,8.11,2.78c2.96,0.18,5.74-0.53,8.29-2.07
				c2.25-1.36,4.03-3.43,5.33-6.1C233.03,499.46,233.68,496.26,233.68,492.54z"/>
			<path class="st0" d="M274.17,510.53c-1.48-0.41-2.6-1.12-3.31-2.25c-0.89-1.36-1.66-3.49-2.31-6.27
				c-0.18-0.65-0.42-1.36-0.59-2.13c-0.53-1.66-1.24-2.84-2.13-3.55c-0.89-0.65-1.89-1.01-3.02-1.01c-1.72,0.06-3.43,0.35-5.15,1.01
				c-1.72,0.65-3.02,1.18-3.85,1.6c-0.06,0-0.06,0-0.12,0.06v13.08h-4.38v-39.78h12.02c2.55,0.12,4.62,0.41,6.28,0.83
				c2.6,0.77,4.68,2.07,6.27,3.79c1.6,1.78,2.37,3.97,2.43,6.57c-0.06,3.02-0.89,5.39-2.49,7.1c-1.6,1.72-3.43,2.9-5.51,3.67
				c-2.07,0.77-3.79,1.18-5.15,1.36c2.78-0.06,4.97,0.47,6.51,1.48c1.54,1.01,2.55,2.19,2.96,3.43c0.3,0.77,0.47,1.6,0.65,2.49
				c0.18,1.78,0.83,3.67,2.07,5.62c1.18,1.6,2.9,2.49,5.21,2.6v0.83C277.78,511.12,275.65,510.95,274.17,510.53z M269.32,490.17
				c1.78-1.66,2.6-4.38,2.54-8.17c-0.3-4.14-1.72-6.87-4.38-8.23c-2.66-1.3-5.8-1.84-9.41-1.66h-4.38v24.98
				c2.72-1.01,5.39-2.01,8.05-2.9C264.99,493.19,267.48,491.88,269.32,490.17z"/>
			<path class="st0" d="M290.33,471.28h4.38v39.78h-4.38V471.28z"/>
			<path class="st0" d="M336.09,471.28V511h-0.89l-28.3-33.33v21.31c0.3,6.81,1.01,10.83,2.19,12.02h-3.14v-39.72h0.89l28.3,33.33
				V483.3c-0.3-6.81-1.07-10.83-2.25-12.02H336.09z"/>
			<path class="st0" d="M377.47,471.28V511h-0.89l-28.3-33.33v21.31c0.3,6.81,1.01,10.83,2.19,12.02h-3.14v-39.72h0.89l28.3,33.33
				V483.3c-0.3-6.81-1.07-10.83-2.25-12.02H377.47z"/>
			<path class="st0" d="M388.43,511.06l14.15-36.17l-1.48-3.61h4.91l16.16,39.78h-4.91l-5.51-13.62h-16.99
				c-1.01,2.78-1.9,5.51-2.6,8.17c-0.71,2.66-0.83,4.5-0.42,5.45H388.43z M400.86,481.7c-2.01,4.97-3.97,9.95-5.8,14.92h16.34
				l-8.35-20.54L400.86,481.7z"/>
			<path class="st0" d="M473.62,474.42c3.14,1.95,5.51,4.44,7.1,7.46c1.6,3.02,2.31,6.16,2.19,9.47c-0.3,6.63-2.31,11.54-5.92,14.8
				c-3.61,3.26-8.35,4.91-14.15,4.91h-11.66v-39.78h10.66C466.51,471.4,470.48,472.47,473.62,474.42z M474.56,504.37
				c2.43-3.79,3.55-8.17,3.37-13.2c-0.12-4.74-1.48-8.94-4.08-12.67c-2.6-3.73-6.51-5.86-11.66-6.39h-6.63v38.12h7.7
				C468.35,510.12,472.14,508.16,474.56,504.37z"/>
			<path class="st0" d="M493.03,471.28h4.38v39.78h-4.38V471.28z"/>
			<path class="st0" d="M538.79,471.28V511h-0.89l-28.3-33.33v21.31c0.3,6.81,1.01,10.83,2.19,12.02h-3.14v-39.72h0.89l28.3,33.33
				V483.3c-0.3-6.81-1.07-10.83-2.25-12.02H538.79z"/>
			<path class="st0" d="M550.04,511.06v-39.78h4.38v23.38c1.3-1.24,2.6-2.49,3.91-3.73c3.37-3.2,6.69-6.45,9.94-9.77
				c4.56-4.5,6.57-7.81,6.04-9.89h5.15l-16.34,15.86l17.7,23.92h-4.91l-15.63-21.13l-5.86,5.68v15.45H550.04z"/>
			<path class="st0" d="M616.64,511.06h-24.57v-39.78h24.57v3.2c-0.89-0.77-2.66-1.36-5.27-1.72c-2.6-0.3-5.27-0.53-8.05-0.59
				c-2.78-0.06-4.97-0.12-6.51-0.06h-0.35v15.09h14.62v0.77h-14.62v22.26h0.35c1.54,0.06,3.73,0,6.51-0.06
				c2.78-0.06,5.45-0.3,8.05-0.65c2.6-0.3,4.38-0.89,5.27-1.66V511.06z"/>
			<path class="st0" d="M627.89,511.06v-39.78h4.44v38.95h1.95c10.6-0.06,16.69-0.83,18.17-2.37v3.2H627.89z"/>
		</g>
		<g>
			<path class="st0" d="M235.31,533.06c-0.88-1.41-2.29-1.62-3.65-1.64c-1.41,0-3.65,0.52-3.65,2.45c0,1.53,1.65,1.89,3.69,2.27
				c2.33,0.45,4.74,0.86,4.74,3.46c-0.02,2.72-2.76,3.38-4.77,3.38c-1.88,0-4.01-0.78-4.94-2.62l0.83-0.41
				c0.74,1.46,2.64,2.19,4.12,2.19c1.48,0,3.84-0.41,3.84-2.55c0.02-1.81-1.98-2.2-3.96-2.58c-2.2-0.43-4.46-0.88-4.46-3.1
				c-0.05-2.55,2.6-3.34,4.58-3.34c1.72,0,3.22,0.28,4.41,2.05L235.31,533.06z"/>
			<path class="st0" d="M245.28,531.58h-4.36v-0.83h9.65v0.83h-4.36v11.21h-0.93V531.58z"/>
			<path class="st0" d="M255.79,542.79v-12.06h0.91v12.06H255.79z"/>
			<path class="st0" d="M273.33,532.08l-4.62,7.06h-0.31l-4.65-7.06v10.71h-0.93v-12.06c0.45,0,0.66,0,1.1,0l4.62,7.03l4.56-7.03
				h1.14v12.06h-0.91V532.08z"/>
			<path class="st0" d="M290.88,532.08l-4.62,7.06h-0.31l-4.65-7.06v10.71h-0.93v-12.06c0.45,0,0.66,0,1.1,0l4.62,7.03l4.56-7.03
				h1.14v12.06h-0.91V532.08z"/>
			<path class="st0" d="M307.86,541.12c-1.21,1.21-2.81,1.81-4.39,1.81c-4.07,0-6.18-2.84-6.2-6.1c-0.04-3.22,2.07-6.24,6.2-6.24
				c1.58,0,3.19,0.6,4.39,1.81l-0.64,0.55c-1.03-1.03-2.39-1.53-3.75-1.53c-3.52,0-5.32,2.48-5.31,5.37
				c0.04,2.82,1.83,5.27,5.31,5.27c1.36,0,2.74-0.52,3.77-1.53L307.86,541.12z"/>
			<path class="st0" d="M325.12,536.78c-0.02,3.17-2.03,6.22-6.08,6.22c-4.05,0-6.08-3.07-6.08-6.25c0-3.24,2.01-6.2,6.08-6.2
				C323.11,530.55,325.14,533.53,325.12,536.78z M313.87,536.76c0.02,2.72,1.74,5.37,5.17,5.37c3.44,0,5.19-2.65,5.19-5.37
				c0-2.79-1.72-5.36-5.19-5.36C315.58,531.41,313.86,533.92,313.87,536.76z"/>
			<path class="st0" d="M340.38,542.79l-1.33-2.96h-7.2l-1.31,2.96h-1l5.41-12.06h1.02l5.41,12.06H340.38z M338.69,538.97
				l-3.24-7.34l-3.24,7.34H338.69z"/>
			<path class="st0" d="M355.62,541.12c-1.21,1.21-2.81,1.81-4.39,1.81c-4.07,0-6.18-2.84-6.2-6.1c-0.04-3.22,2.07-6.24,6.2-6.24
				c1.59,0,3.19,0.6,4.39,1.81l-0.64,0.55c-1.03-1.03-2.39-1.53-3.75-1.53c-3.52,0-5.32,2.48-5.31,5.37
				c0.04,2.82,1.83,5.27,5.31,5.27c1.36,0,2.74-0.52,3.77-1.53L355.62,541.12z"/>
			<path class="st0" d="M369.87,542.79v-5.48h-7.68v5.48h-0.93v-12.06h0.93v5.74h7.68v-5.74h0.93v12.06H369.87z"/>
			<path class="st0" d="M376.92,542.79v-12.06h0.91v12.06H376.92z"/>
			<path class="st0" d="M384.35,530.74l8.11,9.97v-9.97h0.91v12.06h-0.36l-8.13-9.96v9.96h-0.93v-12.06H384.35z"/>
			<path class="st0" d="M409.01,532.96c-1.05-1.03-2.51-1.55-3.88-1.55c-3.53,0-5.34,2.58-5.32,5.37c0,2.84,1.81,5.29,5.32,5.29
				c1.29,0,2.64-0.45,3.67-1.4v-3.38h-4.2v-0.81h5.08V541c-1.26,1.26-2.76,1.95-4.55,1.95c-4.1,0-6.22-2.86-6.22-6.15
				c-0.02-3.77,2.55-6.24,6.22-6.24c1.59,0,3.19,0.6,4.41,1.81L409.01,532.96z"/>
			<path class="st0" d="M431.61,533.65c0-1.9-1.48-2.22-3.08-2.22c-2.31,0-3.41,1.07-3.39,2.43c0.02,1.84,1.98,2.41,3.43,2.41
				c1.79,0,3.32,0,5.12,0v0.74h-1.1v2.63c0,1.29,0.29,2.45,1.5,2.43v0.72c-0.98,0.14-1.76-0.52-2.02-1.53
				c-0.88,1.43-2.26,1.69-3.55,1.69c-2.93,0-4.46-1.29-4.46-3.36c0-1.5,1.22-2.55,2.43-2.94c-1.26-0.38-2.22-1.43-2.22-2.77
				c0-1.86,1.53-3.2,4.29-3.2c1.93,0,3.88,0.5,3.88,2.98H431.61z M431.81,537.01h-3.31c-2.38,0-3.58,1.34-3.58,2.58
				c0,1.55,1.14,2.55,3.57,2.55c1.38,0,3.32-0.48,3.32-2.5V537.01z"/>
			<path class="st0" d="M448.81,530.74v11.18h6.79v0.88h-7.72v-12.06H448.81z"/>
			<path class="st0" d="M472.09,536.78c-0.02,3.17-2.03,6.22-6.08,6.22s-6.08-3.07-6.08-6.25c0-3.24,2.01-6.2,6.08-6.2
				C470.08,530.55,472.11,533.53,472.09,536.78z M460.84,536.76c0.02,2.72,1.74,5.37,5.17,5.37c3.44,0,5.18-2.65,5.18-5.37
				c0-2.79-1.72-5.36-5.18-5.36C462.55,531.41,460.83,533.92,460.84,536.76z"/>
			<path class="st0" d="M487.24,532.96c-1.05-1.03-2.51-1.55-3.88-1.55c-3.53,0-5.34,2.58-5.32,5.37c0,2.84,1.81,5.29,5.32,5.29
				c1.29,0,2.64-0.45,3.67-1.4v-3.38h-4.2v-0.81h5.08V541c-1.26,1.26-2.76,1.95-4.55,1.95c-4.1,0-6.22-2.86-6.22-6.15
				c-0.02-3.77,2.55-6.24,6.22-6.24c1.58,0,3.19,0.6,4.41,1.81L487.24,532.96z"/>
			<path class="st0" d="M505.53,536.78c-0.02,3.17-2.03,6.22-6.08,6.22c-4.05,0-6.08-3.07-6.08-6.25c0-3.24,2.01-6.2,6.08-6.2
				C503.51,530.55,505.55,533.53,505.53,536.78z M494.28,536.76c0.02,2.72,1.74,5.37,5.17,5.37c3.44,0,5.18-2.65,5.18-5.37
				c0-2.79-1.72-5.36-5.18-5.36C495.99,531.41,494.26,533.92,494.28,536.76z"/>
			<path class="st0" d="M512.12,538.63v4.17h-0.93v-12.06c1.76,0,3.53,0,5.29,0c5.24,0,5.24,7.89,0,7.89H512.12z M512.12,531.6v6.18
				h4.36c4.01,0,4.01-6.18,0-6.18H512.12z"/>
			<path class="st0" d="M535.5,542.79l-1.33-2.96h-7.2l-1.31,2.96h-1l5.41-12.06h1.02l5.41,12.06H535.5z M533.82,538.97l-3.24-7.34
				l-3.24,7.34H533.82z M528.08,528.82c0,0.9,1.36,0.9,1.36,0C529.44,527.93,528.08,527.93,528.08,528.82z M531.77,528.82
				c0,0.9,1.36,0.9,1.36,0C533.13,527.93,531.77,527.93,531.77,528.82z"/>
			<path class="st0" d="M551.98,536.63c0.07,3.07-1.9,6.17-6.12,6.17c-1.36,0-2.72,0-4.08,0v-12.06c1.36,0,2.72,0,4.08,0
				C549.95,530.74,551.91,533.66,551.98,536.63z M542.71,531.61v10.28h3.15c3.58,0,5.24-2.69,5.19-5.27
				c-0.05-2.52-1.71-5.01-5.19-5.01H542.71z"/>
			<path class="st0" d="M557.74,542.79v-12.06h0.91v12.06H557.74z"/>
			<path class="st0" d="M565.67,536.3h7.06v0.84h-7.06v4.75h7.61v0.9h-8.53v-12.06h8.32v0.88h-7.41V536.3z"/>
		</g>
	</g>
</g>
</svg>
